<mxfile host="app.diagrams.net" modified="2023-11-08T18:31:06.611Z" agent="Mozilla/5.0 (Windows NT 10.0; Win64; x64) AppleWebKit/537.36 (KHTML, like Gecko) Chrome/119.0.0.0 Safari/537.36" etag="35faE20egniN_a1mV0Tt" version="22.0.8" type="device">
  <diagram name="Page-1" id="5Uok0-lkYK6LsYW8CxN1">
    <mxGraphModel dx="1750" dy="1050" grid="1" gridSize="10" guides="1" tooltips="1" connect="1" arrows="1" fold="1" page="1" pageScale="1" pageWidth="1100" pageHeight="850" math="0" shadow="0">
      <root>
        <mxCell id="0" />
        <mxCell id="1" parent="0" />
        <mxCell id="mwLLd6QhnoRpCWIZ_JGE-1" value="GameEngine" style="html=1;whiteSpace=wrap;labelBackgroundColor=none;fillColor=#F2CC8F;strokeColor=#E07A5F;fontColor=#393C56;rounded=0;" parent="1" vertex="1">
          <mxGeometry x="470.5" y="51" width="110" height="50" as="geometry" />
        </mxCell>
        <mxCell id="pHaLCWS4St02l_0jBgoj-12" value="" style="edgeStyle=orthogonalEdgeStyle;rounded=0;orthogonalLoop=1;jettySize=auto;html=1;fillColor=#ffe6cc;strokeColor=#d79b00;" edge="1" parent="1" source="mwLLd6QhnoRpCWIZ_JGE-2" target="mwLLd6QhnoRpCWIZ_JGE-3">
          <mxGeometry relative="1" as="geometry" />
        </mxCell>
        <mxCell id="mwLLd6QhnoRpCWIZ_JGE-2" value="GameUtils" style="html=1;whiteSpace=wrap;labelBackgroundColor=none;fillColor=#F2CC8F;strokeColor=#E07A5F;fontColor=#393C56;rounded=0;" parent="1" vertex="1">
          <mxGeometry x="243" y="41" width="110" height="50" as="geometry" />
        </mxCell>
        <mxCell id="pHaLCWS4St02l_0jBgoj-27" value="" style="edgeStyle=orthogonalEdgeStyle;rounded=0;orthogonalLoop=1;jettySize=auto;html=1;fillColor=#ffe6cc;strokeColor=#d79b00;" edge="1" parent="1">
          <mxGeometry relative="1" as="geometry">
            <mxPoint x="593" y="60.8" as="sourcePoint" />
            <mxPoint x="773" y="160" as="targetPoint" />
          </mxGeometry>
        </mxCell>
        <mxCell id="pHaLCWS4St02l_0jBgoj-33" style="edgeStyle=orthogonalEdgeStyle;rounded=0;orthogonalLoop=1;jettySize=auto;html=1;entryX=0.495;entryY=-0.006;entryDx=0;entryDy=0;entryPerimeter=0;fillColor=#ffe6cc;strokeColor=#d79b00;exitX=0.256;exitY=1.004;exitDx=0;exitDy=0;exitPerimeter=0;" edge="1" parent="1" source="mwLLd6QhnoRpCWIZ_JGE-3" target="mwLLd6QhnoRpCWIZ_JGE-16">
          <mxGeometry relative="1" as="geometry">
            <mxPoint x="513" y="360" as="targetPoint" />
          </mxGeometry>
        </mxCell>
        <mxCell id="mwLLd6QhnoRpCWIZ_JGE-3" value="Controller" style="shape=umlFrame;whiteSpace=wrap;html=1;pointerEvents=0;labelBackgroundColor=none;fillColor=#F2CC8F;strokeColor=#E07A5F;fontColor=#393C56;rounded=0;strokeWidth=2;" parent="1" vertex="1">
          <mxGeometry x="458" y="12" width="135" height="108" as="geometry" />
        </mxCell>
        <mxCell id="mwLLd6QhnoRpCWIZ_JGE-4" value="Continent" style="html=1;whiteSpace=wrap;labelBackgroundColor=none;fillColor=#F2CC8F;strokeColor=#E07A5F;fontColor=#393C56;rounded=0;" parent="1" vertex="1">
          <mxGeometry x="393" y="615" width="110" height="50" as="geometry" />
        </mxCell>
        <mxCell id="mwLLd6QhnoRpCWIZ_JGE-5" value="Country" style="html=1;whiteSpace=wrap;labelBackgroundColor=none;fillColor=#F2CC8F;strokeColor=#E07A5F;fontColor=#393C56;rounded=0;" parent="1" vertex="1">
          <mxGeometry x="553" y="615" width="110" height="50" as="geometry" />
        </mxCell>
        <mxCell id="pHaLCWS4St02l_0jBgoj-35" value="" style="edgeStyle=orthogonalEdgeStyle;rounded=0;orthogonalLoop=1;jettySize=auto;html=1;fillColor=#ffe6cc;strokeColor=#d79b00;" edge="1" parent="1" source="mwLLd6QhnoRpCWIZ_JGE-6" target="mwLLd6QhnoRpCWIZ_JGE-5">
          <mxGeometry relative="1" as="geometry">
            <Array as="points">
              <mxPoint x="573" y="685" />
              <mxPoint x="608" y="685" />
            </Array>
          </mxGeometry>
        </mxCell>
        <mxCell id="mwLLd6QhnoRpCWIZ_JGE-6" value="Map" style="html=1;whiteSpace=wrap;labelBackgroundColor=none;fillColor=#F2CC8F;strokeColor=#E07A5F;fontColor=#393C56;rounded=0;" parent="1" vertex="1">
          <mxGeometry x="472" y="695" width="110" height="50" as="geometry" />
        </mxCell>
        <mxCell id="pHaLCWS4St02l_0jBgoj-37" value="" style="edgeStyle=orthogonalEdgeStyle;rounded=0;orthogonalLoop=1;jettySize=auto;html=1;fillColor=#ffe6cc;strokeColor=#d79b00;" edge="1" parent="1" source="mwLLd6QhnoRpCWIZ_JGE-7" target="mwLLd6QhnoRpCWIZ_JGE-6">
          <mxGeometry relative="1" as="geometry">
            <Array as="points">
              <mxPoint x="448" y="765" />
              <mxPoint x="493" y="765" />
            </Array>
          </mxGeometry>
        </mxCell>
        <mxCell id="mwLLd6QhnoRpCWIZ_JGE-7" value="MapFileParser" style="html=1;whiteSpace=wrap;labelBackgroundColor=none;fillColor=#F2CC8F;strokeColor=#E07A5F;fontColor=#393C56;rounded=0;" parent="1" vertex="1">
          <mxGeometry x="393" y="775" width="110" height="50" as="geometry" />
        </mxCell>
        <mxCell id="pHaLCWS4St02l_0jBgoj-34" value="" style="edgeStyle=orthogonalEdgeStyle;rounded=0;orthogonalLoop=1;jettySize=auto;html=1;fillColor=#ffe6cc;strokeColor=#d79b00;" edge="1" parent="1" source="mwLLd6QhnoRpCWIZ_JGE-8" target="mwLLd6QhnoRpCWIZ_JGE-11">
          <mxGeometry relative="1" as="geometry" />
        </mxCell>
        <mxCell id="mwLLd6QhnoRpCWIZ_JGE-8" value="MapUtils" style="html=1;whiteSpace=wrap;labelBackgroundColor=none;fillColor=#F2CC8F;strokeColor=#E07A5F;fontColor=#393C56;rounded=0;" parent="1" vertex="1">
          <mxGeometry x="203" y="682.5" width="110" height="50" as="geometry" />
        </mxCell>
        <mxCell id="pHaLCWS4St02l_0jBgoj-39" value="" style="edgeStyle=orthogonalEdgeStyle;rounded=0;orthogonalLoop=1;jettySize=auto;html=1;fillColor=#ffe6cc;strokeColor=#d79b00;" edge="1" parent="1" source="mwLLd6QhnoRpCWIZ_JGE-10" target="mwLLd6QhnoRpCWIZ_JGE-6">
          <mxGeometry relative="1" as="geometry">
            <Array as="points">
              <mxPoint x="608" y="765" />
              <mxPoint x="553" y="765" />
            </Array>
          </mxGeometry>
        </mxCell>
        <mxCell id="mwLLd6QhnoRpCWIZ_JGE-10" value="MapValidator" style="html=1;whiteSpace=wrap;labelBackgroundColor=none;fillColor=#F2CC8F;strokeColor=#E07A5F;fontColor=#393C56;rounded=0;" parent="1" vertex="1">
          <mxGeometry x="553" y="775" width="110" height="50" as="geometry" />
        </mxCell>
        <mxCell id="mwLLd6QhnoRpCWIZ_JGE-11" value="Map" style="shape=umlFrame;whiteSpace=wrap;html=1;pointerEvents=0;labelBackgroundColor=none;fillColor=#F2CC8F;strokeColor=#E07A5F;fontColor=#393C56;rounded=0;strokeWidth=2;" parent="1" vertex="1">
          <mxGeometry x="373" y="575" width="310" height="265" as="geometry" />
        </mxCell>
        <mxCell id="mwLLd6QhnoRpCWIZ_JGE-12" value="Deploy" style="html=1;whiteSpace=wrap;labelBackgroundColor=none;fillColor=#F2CC8F;strokeColor=#E07A5F;fontColor=#393C56;rounded=0;" parent="1" vertex="1">
          <mxGeometry x="332" y="351" width="110" height="50" as="geometry" />
        </mxCell>
        <mxCell id="mwLLd6QhnoRpCWIZ_JGE-13" value="Advance" style="html=1;whiteSpace=wrap;labelBackgroundColor=none;fillColor=#F2CC8F;strokeColor=#E07A5F;fontColor=#393C56;rounded=0;" parent="1" vertex="1">
          <mxGeometry x="332" y="411" width="110" height="50" as="geometry" />
        </mxCell>
        <mxCell id="mwLLd6QhnoRpCWIZ_JGE-14" value="Orders" style="shape=umlFrame;whiteSpace=wrap;html=1;pointerEvents=0;labelBackgroundColor=none;fillColor=#F2CC8F;strokeColor=#E07A5F;rounded=0;fontColor=#393C56;strokeWidth=2;" parent="1" vertex="1">
          <mxGeometry x="322" y="308.5" width="130" height="160" as="geometry" />
        </mxCell>
        <mxCell id="pHaLCWS4St02l_0jBgoj-10" value="" style="edgeStyle=orthogonalEdgeStyle;rounded=0;orthogonalLoop=1;jettySize=auto;html=1;fillColor=#ffe6cc;strokeColor=#d79b00;" edge="1" parent="1" source="mwLLd6QhnoRpCWIZ_JGE-15" target="mwLLd6QhnoRpCWIZ_JGE-14">
          <mxGeometry relative="1" as="geometry" />
        </mxCell>
        <mxCell id="mwLLd6QhnoRpCWIZ_JGE-15" value="Player" style="html=1;whiteSpace=wrap;labelBackgroundColor=none;fillColor=#F2CC8F;strokeColor=#E07A5F;fontColor=#393C56;rounded=0;" parent="1" vertex="1">
          <mxGeometry x="332" y="186" width="110" height="50" as="geometry" />
        </mxCell>
        <mxCell id="mwLLd6QhnoRpCWIZ_JGE-16" value="Player" style="shape=umlFrame;whiteSpace=wrap;html=1;pointerEvents=0;labelBackgroundColor=none;fillColor=#F2CC8F;strokeColor=#E07A5F;fontColor=#393C56;rounded=0;strokeWidth=2;" parent="1" vertex="1">
          <mxGeometry x="112" y="161" width="360" height="400" as="geometry" />
        </mxCell>
        <mxCell id="pHaLCWS4St02l_0jBgoj-11" value="" style="edgeStyle=orthogonalEdgeStyle;rounded=0;orthogonalLoop=1;jettySize=auto;html=1;fillColor=#ffe6cc;strokeColor=#d79b00;" edge="1" parent="1" source="pHaLCWS4St02l_0jBgoj-1" target="mwLLd6QhnoRpCWIZ_JGE-14">
          <mxGeometry relative="1" as="geometry" />
        </mxCell>
        <mxCell id="pHaLCWS4St02l_0jBgoj-1" value="Cards" style="shape=umlFrame;whiteSpace=wrap;html=1;pointerEvents=0;labelBackgroundColor=none;fillColor=#F2CC8F;strokeColor=#E07A5F;rounded=0;fontColor=#393C56;strokeWidth=2;" vertex="1" parent="1">
          <mxGeometry x="142" y="241" width="130" height="295" as="geometry" />
        </mxCell>
        <mxCell id="pHaLCWS4St02l_0jBgoj-2" value="Bomb" style="html=1;whiteSpace=wrap;labelBackgroundColor=none;fillColor=#F2CC8F;strokeColor=#E07A5F;fontColor=#393C56;rounded=0;" vertex="1" parent="1">
          <mxGeometry x="152" y="291" width="110" height="50" as="geometry" />
        </mxCell>
        <mxCell id="pHaLCWS4St02l_0jBgoj-3" value="Negotiate" style="html=1;whiteSpace=wrap;labelBackgroundColor=none;fillColor=#F2CC8F;strokeColor=#E07A5F;fontColor=#393C56;rounded=0;" vertex="1" parent="1">
          <mxGeometry x="152" y="471" width="110" height="50" as="geometry" />
        </mxCell>
        <mxCell id="pHaLCWS4St02l_0jBgoj-4" value="Blockade" style="html=1;whiteSpace=wrap;labelBackgroundColor=none;fillColor=#F2CC8F;strokeColor=#E07A5F;fontColor=#393C56;rounded=0;" vertex="1" parent="1">
          <mxGeometry x="152" y="351" width="110" height="50" as="geometry" />
        </mxCell>
        <mxCell id="pHaLCWS4St02l_0jBgoj-5" value="Airlift" style="html=1;whiteSpace=wrap;labelBackgroundColor=none;fillColor=#F2CC8F;strokeColor=#E07A5F;fontColor=#393C56;rounded=0;" vertex="1" parent="1">
          <mxGeometry x="152" y="411" width="110" height="50" as="geometry" />
        </mxCell>
        <mxCell id="pHaLCWS4St02l_0jBgoj-13" value="CreateOrders" style="html=1;whiteSpace=wrap;labelBackgroundColor=none;fillColor=#F2CC8F;strokeColor=#E07A5F;fontColor=#393C56;rounded=0;" vertex="1" parent="1">
          <mxGeometry x="813" y="351" width="110" height="50" as="geometry" />
        </mxCell>
        <mxCell id="pHaLCWS4St02l_0jBgoj-14" value="ExecuteOrders" style="html=1;whiteSpace=wrap;labelBackgroundColor=none;fillColor=#F2CC8F;strokeColor=#E07A5F;fontColor=#393C56;rounded=0;" vertex="1" parent="1">
          <mxGeometry x="813" y="411" width="110" height="50" as="geometry" />
        </mxCell>
        <mxCell id="pHaLCWS4St02l_0jBgoj-15" value="&lt;font style=&quot;font-size: 11px;&quot;&gt;MainGame&lt;/font&gt;" style="shape=umlFrame;whiteSpace=wrap;html=1;pointerEvents=0;labelBackgroundColor=none;fillColor=#F2CC8F;strokeColor=#E07A5F;rounded=0;fontColor=#393C56;strokeWidth=2;" vertex="1" parent="1">
          <mxGeometry x="803" y="308.5" width="130" height="160" as="geometry" />
        </mxCell>
        <mxCell id="pHaLCWS4St02l_0jBgoj-16" value="" style="edgeStyle=orthogonalEdgeStyle;rounded=0;orthogonalLoop=1;jettySize=auto;html=1;fillColor=#ffe6cc;strokeColor=#d79b00;" edge="1" parent="1" source="pHaLCWS4St02l_0jBgoj-17" target="pHaLCWS4St02l_0jBgoj-15">
          <mxGeometry relative="1" as="geometry" />
        </mxCell>
        <mxCell id="pHaLCWS4St02l_0jBgoj-17" value="Player" style="html=1;whiteSpace=wrap;labelBackgroundColor=none;fillColor=#F2CC8F;strokeColor=#E07A5F;fontColor=#393C56;rounded=0;" vertex="1" parent="1">
          <mxGeometry x="813" y="186" width="110" height="50" as="geometry" />
        </mxCell>
        <mxCell id="pHaLCWS4St02l_0jBgoj-18" value="Gameplay" style="shape=umlFrame;whiteSpace=wrap;html=1;pointerEvents=0;labelBackgroundColor=none;fillColor=#F2CC8F;strokeColor=#E07A5F;fontColor=#393C56;rounded=0;strokeWidth=2;" vertex="1" parent="1">
          <mxGeometry x="593" y="161" width="360" height="400" as="geometry" />
        </mxCell>
        <mxCell id="pHaLCWS4St02l_0jBgoj-19" value="" style="edgeStyle=orthogonalEdgeStyle;rounded=0;orthogonalLoop=1;jettySize=auto;html=1;fillColor=#ffe6cc;strokeColor=#d79b00;" edge="1" parent="1" source="pHaLCWS4St02l_0jBgoj-20" target="pHaLCWS4St02l_0jBgoj-15">
          <mxGeometry relative="1" as="geometry" />
        </mxCell>
        <mxCell id="pHaLCWS4St02l_0jBgoj-20" value="Phases" style="shape=umlFrame;whiteSpace=wrap;html=1;pointerEvents=0;labelBackgroundColor=none;fillColor=#F2CC8F;strokeColor=#E07A5F;rounded=0;fontColor=#393C56;strokeWidth=2;" vertex="1" parent="1">
          <mxGeometry x="623" y="241" width="130" height="295" as="geometry" />
        </mxCell>
        <mxCell id="pHaLCWS4St02l_0jBgoj-21" value="PreLoad" style="html=1;whiteSpace=wrap;labelBackgroundColor=none;fillColor=#F2CC8F;strokeColor=#E07A5F;fontColor=#393C56;rounded=0;" vertex="1" parent="1">
          <mxGeometry x="633" y="291" width="110" height="50" as="geometry" />
        </mxCell>
        <mxCell id="pHaLCWS4St02l_0jBgoj-22" value="End" style="html=1;whiteSpace=wrap;labelBackgroundColor=none;fillColor=#F2CC8F;strokeColor=#E07A5F;fontColor=#393C56;rounded=0;" vertex="1" parent="1">
          <mxGeometry x="633" y="471" width="110" height="50" as="geometry" />
        </mxCell>
        <mxCell id="pHaLCWS4St02l_0jBgoj-23" value="PlaySetup" style="html=1;whiteSpace=wrap;labelBackgroundColor=none;fillColor=#F2CC8F;strokeColor=#E07A5F;fontColor=#393C56;rounded=0;" vertex="1" parent="1">
          <mxGeometry x="633" y="351" width="110" height="50" as="geometry" />
        </mxCell>
        <mxCell id="pHaLCWS4St02l_0jBgoj-24" value="PostLoad" style="html=1;whiteSpace=wrap;labelBackgroundColor=none;fillColor=#F2CC8F;strokeColor=#E07A5F;fontColor=#393C56;rounded=0;" vertex="1" parent="1">
          <mxGeometry x="633" y="411" width="110" height="50" as="geometry" />
        </mxCell>
        <mxCell id="pHaLCWS4St02l_0jBgoj-36" value="" style="edgeStyle=orthogonalEdgeStyle;rounded=0;orthogonalLoop=1;jettySize=auto;html=1;entryX=0.5;entryY=1;entryDx=0;entryDy=0;fillColor=#ffe6cc;strokeColor=#d79b00;" edge="1" parent="1" target="mwLLd6QhnoRpCWIZ_JGE-4">
          <mxGeometry relative="1" as="geometry">
            <mxPoint x="508" y="695" as="sourcePoint" />
            <mxPoint x="543" y="665" as="targetPoint" />
            <Array as="points">
              <mxPoint x="493" y="695" />
              <mxPoint x="493" y="685" />
              <mxPoint x="448" y="685" />
            </Array>
          </mxGeometry>
        </mxCell>
        <mxCell id="pHaLCWS4St02l_0jBgoj-41" style="edgeStyle=orthogonalEdgeStyle;rounded=0;orthogonalLoop=1;jettySize=auto;html=1;fillColor=#ffe6cc;strokeColor=#d79b00;entryX=0.505;entryY=-0.011;entryDx=0;entryDy=0;entryPerimeter=0;exitX=0.535;exitY=1.004;exitDx=0;exitDy=0;exitPerimeter=0;" edge="1" parent="1" source="mwLLd6QhnoRpCWIZ_JGE-3" target="mwLLd6QhnoRpCWIZ_JGE-11">
          <mxGeometry relative="1" as="geometry">
            <mxPoint x="528" y="590" as="targetPoint" />
          </mxGeometry>
        </mxCell>
        <mxCell id="pHaLCWS4St02l_0jBgoj-48" value="" style="edgeStyle=orthogonalEdgeStyle;rounded=0;orthogonalLoop=1;jettySize=auto;html=1;fillColor=#ffe6cc;strokeColor=#d79b00;" edge="1" parent="1" source="pHaLCWS4St02l_0jBgoj-42" target="pHaLCWS4St02l_0jBgoj-18">
          <mxGeometry relative="1" as="geometry">
            <Array as="points">
              <mxPoint x="793" y="596" />
              <mxPoint x="873" y="596" />
            </Array>
          </mxGeometry>
        </mxCell>
        <mxCell id="pHaLCWS4St02l_0jBgoj-42" value="LogFileWriter" style="html=1;whiteSpace=wrap;labelBackgroundColor=none;fillColor=#F2CC8F;strokeColor=#E07A5F;fontColor=#393C56;rounded=0;" vertex="1" parent="1">
          <mxGeometry x="743" y="630" width="110" height="50" as="geometry" />
        </mxCell>
        <mxCell id="pHaLCWS4St02l_0jBgoj-45" value="" style="edgeStyle=orthogonalEdgeStyle;rounded=0;orthogonalLoop=1;jettySize=auto;html=1;fillColor=#ffe6cc;strokeColor=#d79b00;" edge="1" parent="1" source="pHaLCWS4St02l_0jBgoj-43" target="pHaLCWS4St02l_0jBgoj-18">
          <mxGeometry relative="1" as="geometry">
            <Array as="points">
              <mxPoint x="978" y="596" />
              <mxPoint x="873" y="596" />
            </Array>
          </mxGeometry>
        </mxCell>
        <mxCell id="pHaLCWS4St02l_0jBgoj-43" value="LogEntryBuffer" style="html=1;whiteSpace=wrap;labelBackgroundColor=none;fillColor=#F2CC8F;strokeColor=#E07A5F;fontColor=#393C56;rounded=0;" vertex="1" parent="1">
          <mxGeometry x="923" y="630" width="110" height="50" as="geometry" />
        </mxCell>
      </root>
    </mxGraphModel>
  </diagram>
</mxfile>
